<svg id="logo" xmlns="http://www.w3.org/2000/svg" xmlns:xlink="http://www.w3.org/1999/xlink" width="154" height="23" viewBox="0 0 154 23">
  <defs>
    <clipPath id="clip-path">
      <rect id="사각형_1" data-name="사각형 1" width="154" height="23" fill="#1a1a1a"/>
    </clipPath>
  </defs>
  <g id="그룹_1" data-name="그룹 1" transform="translate(0 0)" clip-path="url(#clip-path)">
    <path id="패스_1" data-name="패스 1" d="M32.1,0H0V23H11.053a11.968,11.968,0,0,0,2.018-.174,11.6,11.6,0,0,0,9.486-9.269A11.532,11.532,0,0,0,32.327,2.35c0-.037,0-.072,0-.109A11.227,11.227,0,0,0,32.1,0M22.568,9.025l-.036.01a7.291,7.291,0,0,1-1.9.259H9.546L6.4,13.708H17.889a7.187,7.187,0,0,1-4.939,4.619,7.359,7.359,0,0,1-1.9.257H4.489V4.416H27.472a7.185,7.185,0,0,1-4.9,4.609" transform="translate(0 0)" fill="#1a1a1a"/>
    <path id="패스_2" data-name="패스 2" d="M307.1,11.417h-9.249a4.756,4.756,0,0,0-4.532,3.248,4.678,4.678,0,0,0-.226,1.435v5.967a4.667,4.667,0,0,0,.226,1.435,4.756,4.756,0,0,0,4.537,3.249H307.1a4.755,4.755,0,0,0,4.532-3.249,4.528,4.528,0,0,0,.231-1.435V16.1a4.538,4.538,0,0,0-.231-1.435,4.756,4.756,0,0,0-4.532-3.248m1.459,10.649A1.449,1.449,0,0,1,307.1,23.5h-9.244a1.441,1.441,0,0,1-1.454-1.435V16.1a1.442,1.442,0,0,1,1.454-1.435H307.1a1.449,1.449,0,0,1,1.459,1.435Z" transform="translate(-177.801 -7.001)" fill="#1a1a1a"/>
    <path id="패스_3" data-name="패스 3" d="M211.179,22.066V11.417h-3.3V22.066A4.675,4.675,0,0,0,208.1,23.5a4.758,4.758,0,0,0,4.534,3.249h10.64V23.5h-10.64a1.446,1.446,0,0,1-1.459-1.435" transform="translate(-126.105 -7.001)" fill="#1a1a1a"/>
    <path id="패스_4" data-name="패스 4" d="M253.79,22.066V11.417h-3.3V22.066a4.6,4.6,0,0,0,.228,1.435,4.759,4.759,0,0,0,4.537,3.249h10.638V23.5H255.251a1.446,1.446,0,0,1-1.461-1.435" transform="translate(-151.954 -7.001)" fill="#1a1a1a"/>
    <path id="패스_5" data-name="패스 5" d="M159.023,17.384h-.005a4.761,4.761,0,0,0-4.532,3.247,4.632,4.632,0,0,0,0,2.871,4.76,4.76,0,0,0,4.534,3.248h14V16.1a4.533,4.533,0,0,0-.228-1.435,4.753,4.753,0,0,0-4.529-3.248h-9.094a4.756,4.756,0,0,0-4.532,3.248,4.607,4.607,0,0,0-.228,1.435h3.3a1.448,1.448,0,0,1,1.459-1.435h9.091a1.446,1.446,0,0,1,1.456,1.435v1.284Zm0,6.118a1.436,1.436,0,1,1,0-2.871h10.7V23.5Z" transform="translate(-93.578 -7.001)" fill="#1a1a1a"/>
    <path id="패스_6" data-name="패스 6" d="M346.714,26.75h3.223V21.689h9.169a5.209,5.209,0,0,0,4.853-3.248,4.99,4.99,0,0,0,0-3.776,5.213,5.213,0,0,0-4.853-3.248H346.714Zm12.392-8.309h-9.169V14.665h9.169a1.888,1.888,0,1,1,0,3.776" transform="translate(-210.328 -7.001)" fill="#1a1a1a"/>
    <path id="패스_7" data-name="패스 7" d="M119.677,19.082a4.606,4.606,0,0,0,.866-4.417,4.754,4.754,0,0,0-4.529-3.248H102.006V26.75h14a4.758,4.758,0,0,0,4.534-3.248,4.615,4.615,0,0,0-.866-4.42m-14.449-4.417h10.856a1.359,1.359,0,1,1,0,2.718H105.228ZM116.009,23.5H105.228V20.631h10.781a1.436,1.436,0,1,1,0,2.871" transform="translate(-61.881 -7.001)" fill="#1a1a1a"/>
  </g>
</svg>
