<svg width="39" height="18" viewBox="0 0 39 18" fill="none" xmlns="http://www.w3.org/2000/svg">
<rect width="39" height="18" fill="#7ABDEA"/>
<path d="M7.696 10.503V8.116H5.958V10.503H7.696ZM9.973 7.621V4.112H11.029V13.385H9.973V8.556H8.741V11.416H4.891V4.86H5.958V7.214H7.696V4.86H8.741V7.621H9.973ZM11.964 3.914H13.042V13.847H11.964V3.914ZM23.2931 8.765L22.7981 9.7C21.1811 9.37 19.7841 8.336 19.1351 6.972C18.4861 8.336 17.0891 9.37 15.4721 9.7L14.9881 8.765C16.9461 8.402 18.5411 6.873 18.5411 5.3V4.552H19.7401V5.3C19.7401 6.884 21.3351 8.413 23.2931 8.765ZM14.6801 11.636H23.6781V12.571H14.6801V11.636ZM32.7963 9.161V10.074H25.9103V4.717H32.7193V5.63H27.0653V6.906H32.4993V7.797H27.0653V9.161H32.7963ZM24.7993 11.702H33.8083V12.626H24.7993V11.702Z" fill="white"/>
</svg>
