<svg width="39" height="18" viewBox="0 0 39 18" fill="none" xmlns="http://www.w3.org/2000/svg">
<rect x="0.5" y="0.5" width="38" height="17" fill="white"/>
<rect x="0.5" y="0.5" width="38" height="17" stroke="#4575BA"/>
<path d="M12.745 3.925V11.185H11.612V3.925H12.745ZM10.578 8.721L9.995 9.623C8.862 9.205 8.048 8.391 7.619 7.357C7.168 8.468 6.343 9.37 5.177 9.81L4.594 8.897C6.156 8.325 7.025 6.906 7.025 5.454V4.464H8.18V5.454C8.18 6.862 9.049 8.193 10.578 8.721ZM7.399 12.736H13.031V13.66H6.255V10.503H7.399V12.736ZM20.4551 8.457L19.8611 9.348C18.7941 8.963 18.0021 8.204 17.5841 7.269C17.1441 8.347 16.3301 9.205 15.1861 9.623L14.5811 8.721C16.1431 8.182 16.9901 6.829 16.9901 5.399V4.42H18.1341V5.487C18.1341 6.763 18.9811 7.973 20.4551 8.457ZM19.2341 12.956C20.6201 12.956 21.4231 12.615 21.4231 11.977C21.4231 11.361 20.6201 11.009 19.2341 11.009C17.8481 11.009 17.0451 11.361 17.0451 11.977C17.0451 12.615 17.8481 12.956 19.2341 12.956ZM19.2341 10.118C21.2911 10.118 22.5451 10.811 22.5451 11.977C22.5451 13.154 21.2911 13.847 19.2341 13.847C17.1881 13.847 15.9231 13.154 15.9231 11.977C15.9231 10.811 17.1881 10.118 19.2341 10.118ZM22.4351 6.367H23.8431V7.302H22.4351V9.876H21.3021V3.903H22.4351V6.367ZM30.4203 6.939V5.113H28.1323V6.939H30.4203ZM26.9993 6.939V5.113H25.5913V4.2H32.9503V5.113H31.5533V6.939H32.8953V7.852H25.6463V6.939H26.9993ZM31.5753 12.824V11.471H26.9883V12.824H31.5753ZM33.7753 9.557H29.8483V10.569H32.6863V13.726H25.8663V10.569H28.7153V9.557H24.7883V8.644H33.7753V9.557Z" fill="#4575BA"/>
</svg>
